PathFileType	4	(X/Y/Z)	s11c0101.trc
DataRate	CameraRate	NumFrames	NumMarkers	Units	OrigDataRate	OrigDataStartFrame	OrigNumFrames
200	200	4	48	mm	200	0	2000
Frame#	Time	racr			lacr			c7			jug			rlel			rdr			llel			ldr			s2			lic			ric			lasi			rasi			rpsi			lpsi			rgt			lgt			rth1			rth2			rth3			rth4			rlfc			rmfc			rsh1			rsh2			rsh3			rsh4			rlmal			rcal			rtoe			rmt5			lth1			lth2			lth4			lth3			llfc			lmfc			llmal			lcal			lmt5			lsh1			lsh2			lsh3			lsh4			ltoe			SBIKE			LBIKE			RBIKE			
		X1	Y1	Z1	X2	Y2	Z2	X3	Y3	Z3	X4	Y4	Z4	X5	Y5	Z5	X6	Y6	Z6	X7	Y7	Z7	X8	Y8	Z8	X9	Y9	Z9	X10	Y10	Z10	X11	Y11	Z11	X12	Y12	Z12	X13	Y13	Z13	X14	Y14	Z14	X15	Y15	Z15	X16	Y16	Z16	X17	Y17	Z17	X18	Y18	Z18	X19	Y19	Z19	X20	Y20	Z20	X21	Y21	Z21	X22	Y22	Z22	X23	Y23	Z23	X24	Y24	Z24	X25	Y25	Z25	X26	Y26	Z26	X27	Y27	Z27	X28	Y28	Z28	X29	Y29	Z29	X30	Y30	Z30	X31	Y31	Z31	X32	Y32	Z32	X33	Y33	Z33	X34	Y34	Z34	X35	Y35	Z35	X36	Y36	Z36	X37	Y37	Z37	X38	Y38	Z38	X39	Y39	Z39	X40	Y40	Z40	X41	Y41	Z41	X42	Y42	Z42	X43	Y43	Z43	X44	Y44	Z44	X45	Y45	Z45	X46	Y46	Z46	X47	Y47	Z47	X48	Y48	Z48	
0	0.0000	478.991702	1405.260394	-109.700623	468.340271	1421.338061	-431.285680	395.142205	1517.117859	-270.163425	444.548913	1347.254973	-275.408628	598.648927	1161.857806	-55.983178	783.639529	928.191569	-98.747525	562.332649	1137.231193	-493.593466	783.953709	910.403672	-438.420218	-120.466704	1211.421042	-244.281652	97.713692	1216.319219	-454.648764	108.754978	1211.884429	-58.657325	120.129385	1138.168974	-422.242226	128.939616	1143.522111	-91.840462	-70.152004	1280.684895	-194.208034	-77.608856	1274.402390	-291.756271	46.094581	1067.981266	-32.009200	6.536821	1090.505605	-463.735880	161.449028	979.840782	-28.936769	246.607376	955.247749	-38.311917	305.236605	891.562221	-52.337719	265.090425	986.027359	-48.883924	392.314758	822.200686	-70.188092	394.637489	809.517525	-202.311308	287.061232	706.451674	-63.965654	238.300415	635.812815	-86.013188	161.222231	595.326307	-88.401626	255.945897	622.959276	-119.283744	52.644095	522.866328	-102.793302	-13.243640	541.445435	-150.815749	206.718340	358.043614	-148.374242	134.988584	374.071646	-78.087938	120.918347	986.292598	-484.255484	197.458082	947.814613	-479.922583	222.433596	973.923194	-470.297575	245.670828	871.977178	-475.153024	344.561444	770.248081	-446.642422	359.599550	765.612840	-320.851644	258.057758	347.878051	-420.776263	206.434971	301.588008	-385.208482	408.581558	259.307843	-457.629118	310.325631	647.536333	-464.185700	321.763355	562.516846	-453.006398	288.965069	480.917920	-446.656997	353.834211	561.039493	-433.247072	504.104899	288.135148	-390.896431	-216.069547	960.018606	-256.406353	-18.126707	80.925775	-460.716271	-17.998831	80.796781	-62.089228	
1	0.0050	479.016423	1405.246801	-109.712749	468.336228	1421.327980	-431.305634	395.170774	1517.128165	-270.182923	444.559693	1347.182933	-275.481439	598.642945	1161.858147	-55.990357	783.625371	928.180614	-98.755893	562.323198	1137.218450	-493.708361	783.935140	910.406105	-438.405583	-120.408271	1211.401743	-244.318970	97.713690	1216.319097	-454.648824	108.861022	1211.931854	-58.708023	120.168809	1138.187269	-422.314407	129.000373	1143.546394	-91.876957	-70.126534	1280.684666	-194.203738	-77.596263	1274.388158	-291.776264	46.149129	1067.971415	-32.032890	6.562529	1090.462158	-463.733133	161.518465	979.881288	-28.959676	246.669100	955.255143	-38.309516	305.269279	891.626473	-52.325732	265.144452	986.077762	-48.903944	392.358064	822.231576	-70.169348	394.703012	809.532934	-202.269586	287.106879	706.484875	-63.949368	238.353054	635.881448	-85.987972	161.277225	595.384172	-88.417528	256.017675	623.031965	-119.267964	52.668135	522.968900	-102.784063	-13.191997	541.486144	-150.815903	206.753042	358.086526	-148.373207	135.034533	374.139003	-78.069684	120.929964	986.217458	-484.239999	197.459018	947.728083	-479.917424	222.444877	973.850666	-470.302551	245.664329	871.886319	-475.146682	344.546074	770.174305	-446.621141	359.545659	765.515080	-320.829642	258.019811	347.802552	-420.758734	206.382930	301.518310	-385.207367	408.555540	259.251936	-457.628775	310.278926	647.461806	-464.152659	321.710158	562.465541	-453.016176	288.911107	480.842819	-446.647719	353.769290	560.945095	-433.240504	504.059245	288.110323	-390.917310	-216.060378	960.021531	-256.390894	-18.144418	80.948953	-460.703641	-17.988921	80.811651	-62.080655	
2	0.0100	479.050473	1405.249573	-109.688809	468.345944	1421.312895	-431.358798	395.214014	1517.121547	-270.224033	444.576425	1347.148226	-275.492414	598.645948	1161.854698	-55.998889	783.650808	928.167668	-98.740680	562.312903	1137.193919	-493.774765	783.943454	910.406411	-438.405443	-120.404530	1211.394777	-244.321133	97.714709	1216.278793	-454.654434	108.901897	1211.939317	-58.737261	120.182577	1138.168123	-422.342985	129.034824	1143.559464	-91.908478	-70.099855	1280.680505	-194.240638	-77.587727	1274.368801	-291.795764	46.201486	1067.989218	-32.038250	6.607906	1090.418443	-463.736951	161.560002	979.903595	-28.951427	246.727588	955.299412	-38.304282	305.340993	891.688891	-52.297569	265.190391	986.125982	-48.903381	392.422673	822.288383	-70.156945	394.782387	809.587007	-202.270718	287.157940	706.549454	-63.948350	238.404740	635.949794	-85.991747	161.300516	595.446752	-88.395110	256.045967	623.073686	-119.258424	52.715631	523.033763	-102.788949	-13.138281	541.587120	-150.826394	206.804299	358.154945	-148.356553	135.068189	374.199023	-78.080189	120.950516	986.146094	-484.243870	197.447932	947.645016	-479.917089	222.454006	973.764924	-470.299050	245.660917	871.774448	-475.127810	344.502929	770.092796	-446.611742	359.490356	765.419902	-320.819502	257.991308	347.711430	-420.757794	206.343328	301.436412	-385.195794	408.509707	259.179988	-457.625285	310.234805	647.386722	-464.138875	321.659342	562.390994	-452.988674	288.850552	480.787055	-446.650116	353.709619	560.881070	-433.223207	504.038101	288.023479	-390.889417	-216.060691	960.021652	-256.391065	-18.146014	80.955264	-460.690462	-17.988987	80.810131	-62.083468	
3	0.0150	479.053175	1405.212174	-109.701471	468.338623	1421.300765	-431.405272	395.243816	1517.130262	-270.244723	444.560168	1347.137719	-275.562651	598.644502	1161.847529	-55.989617	783.659001	928.157370	-98.736087	562.308558	1137.226374	-493.813033	783.943225	910.414418	-438.402194	-120.375280	1211.388117	-244.340017	97.777068	1216.288498	-454.772871	108.388839	1212.043710	-58.764872	120.225225	1138.133962	-422.371525	129.068341	1143.579584	-91.914496	-69.945334	1280.838385	-194.262408	-77.554396	1274.355189	-291.846836	46.233263	1067.981885	-32.040781	6.627695	1090.361761	-463.748509	161.618398	979.934581	-28.957116	246.769961	955.352075	-38.307195	305.396664	891.732904	-52.295803	265.240273	986.176012	-48.908596	392.482149	822.359053	-70.142452	394.875465	809.622544	-202.232634	287.209706	706.599206	-63.928943	238.672039	635.720584	-85.557337	161.333303	595.552994	-88.383844	256.420897	623.418465	-119.277884	52.748320	523.098039	-102.787279	-13.087090	541.655298	-150.842831	206.842832	358.235663	-148.348406	135.126423	374.287190	-78.079735	120.974133	986.043914	-484.245895	197.458814	947.560762	-479.907099	222.428926	973.758567	-470.335609	245.665837	871.651509	-475.114897	344.473370	770.028006	-446.586509	359.465595	765.310236	-320.798431	257.937610	347.571966	-420.825237	206.312260	301.344027	-385.180967	408.476278	259.089399	-457.628937	310.163901	647.331359	-464.122881	321.615805	562.331627	-452.966113	288.804903	480.704545	-446.630499	353.677977	560.861501	-433.267630	504.006459	287.936616	-390.891995	-216.408185	960.302014	-256.247725	-18.158669	81.006388	-460.658809	-17.985793	80.782955	-62.079216	
